<svg width="200" height="200" viewBox="0 0 200 200" fill="none" xmlns="http://www.w3.org/2000/svg">
<rect width="200" height="200" rx="16" fill="black"/>
<mask id="mask0_9063_4341" style="mask-type:alpha" maskUnits="userSpaceOnUse" x="0" y="0" width="200" height="200">
<rect width="200" height="200" rx="16" fill="black"/>
</mask>
<g mask="url(#mask0_9063_4341)">
<g opacity="0.5">
<g filter="url(#filter0_f_9063_4341)">
<rect x="147.22" y="108.387" width="290.65" height="93.706" transform="rotate(-90.0437 147.22 108.387)" fill="#CAFF4D"/>
</g>
<g filter="url(#filter1_f_9063_4341)">
<rect x="66.2188" y="87.5566" width="289.485" height="93.706" transform="rotate(-90.0437 66.2188 87.5566)" fill="#A77DFF"/>
</g>
<g filter="url(#filter2_f_9063_4341)">
<rect x="-55.7812" y="94.5566" width="289.485" height="93.706" transform="rotate(-90.0437 -55.7812 94.5566)" fill="#00FFC8"/>
</g>
</g>
<path d="M63.3851 144V141.642H65.8961C66.6161 141.642 67.1561 141.447 67.5161 141.057C67.8761 140.667 68.0561 140.109 68.0561 139.383V137.079C68.0561 136.353 67.8761 135.798 67.5161 135.414C67.1561 135.024 66.6161 134.829 65.8961 134.829H63.3761V132.498H65.9951C67.6331 132.498 68.8571 132.894 69.6671 133.686C70.4831 134.472 70.8911 135.603 70.8911 137.079V139.392C70.8911 140.874 70.4861 142.014 69.6761 142.812C68.8661 143.604 67.6391 144 65.9951 144H63.3851ZM61.4141 144V132.498H64.1861V144H61.4141ZM76.4904 144.252C75.0624 144.252 73.9824 143.898 73.2504 143.19C72.5244 142.476 72.1614 141.474 72.1614 140.184V139.023C72.1614 137.715 72.5274 136.701 73.2594 135.981C73.9914 135.255 75.0684 134.892 76.4904 134.892C77.9124 134.892 78.9864 135.255 79.7124 135.981C80.4444 136.701 80.8104 137.715 80.8104 139.023V140.184C80.8104 141.474 80.4474 142.476 79.7214 143.19C78.9954 143.898 77.9184 144.252 76.4904 144.252ZM76.4904 142.083C77.0004 142.083 77.3874 141.93 77.6514 141.624C77.9214 141.312 78.0564 140.871 78.0564 140.301V138.906C78.0564 138.306 77.9214 137.85 77.6514 137.538C77.3874 137.226 77.0004 137.07 76.4904 137.07C75.9804 137.07 75.5904 137.226 75.3204 137.538C75.0564 137.85 74.9244 138.306 74.9244 138.906V140.301C74.9244 140.871 75.0564 141.312 75.3204 141.624C75.5904 141.93 75.9804 142.083 76.4904 142.083ZM83.2424 144L81.4694 135.153H84.2594L85.3574 142.056H85.5194L86.5994 135.369H89.9654L91.0634 142.056H91.2164L92.3234 135.153H95.0864L93.3134 144H89.3984L88.5074 138.366L88.3544 137.376H88.2284L88.0664 138.366L87.1754 144H83.2424ZM101.921 144V138.798C101.921 138.474 101.879 138.195 101.795 137.961C101.711 137.721 101.57 137.538 101.372 137.412C101.174 137.286 100.904 137.223 100.562 137.223C100.28 137.223 100.031 137.274 99.8154 137.376C99.5994 137.472 99.4164 137.607 99.2664 137.781C99.1224 137.949 99.0144 138.141 98.9424 138.357L98.5194 137.07H98.9874C99.0834 136.668 99.2394 136.308 99.4554 135.99C99.6774 135.672 99.9804 135.42 100.364 135.234C100.748 135.042 101.234 134.946 101.822 134.946C102.482 134.946 103.022 135.075 103.442 135.333C103.862 135.585 104.171 135.963 104.369 136.467C104.573 136.971 104.675 137.601 104.675 138.357V144H101.921ZM96.2334 144V135.153H98.9694L98.8794 137.367L98.9874 137.628V144H96.2334ZM106.438 144V132.111H109.192V144H106.438ZM115.039 144.252C113.611 144.252 112.531 143.898 111.799 143.19C111.073 142.476 110.71 141.474 110.71 140.184V139.023C110.71 137.715 111.076 136.701 111.808 135.981C112.54 135.255 113.617 134.892 115.039 134.892C116.461 134.892 117.535 135.255 118.261 135.981C118.993 136.701 119.359 137.715 119.359 139.023V140.184C119.359 141.474 118.996 142.476 118.27 143.19C117.544 143.898 116.467 144.252 115.039 144.252ZM115.039 142.083C115.549 142.083 115.936 141.93 116.2 141.624C116.47 141.312 116.605 140.871 116.605 140.301V138.906C116.605 138.306 116.47 137.85 116.2 137.538C115.936 137.226 115.549 137.07 115.039 137.07C114.529 137.07 114.139 137.226 113.869 137.538C113.605 137.85 113.473 138.306 113.473 138.906V140.301C113.473 140.871 113.605 141.312 113.869 141.624C114.139 141.93 114.529 142.083 115.039 142.083ZM125.927 144L126.008 141.786L125.945 141.651V138.888L125.927 138.528C125.927 138.036 125.783 137.673 125.495 137.439C125.207 137.205 124.724 137.088 124.046 137.088C123.452 137.088 122.888 137.163 122.354 137.313C121.82 137.463 121.316 137.634 120.842 137.826L121.076 135.693C121.358 135.561 121.673 135.438 122.021 135.324C122.375 135.204 122.765 135.108 123.191 135.036C123.617 134.964 124.073 134.928 124.559 134.928C125.333 134.928 125.981 135.018 126.503 135.198C127.025 135.378 127.442 135.633 127.754 135.963C128.066 136.293 128.291 136.689 128.429 137.151C128.567 137.607 128.636 138.111 128.636 138.663V144H125.927ZM123.11 144.207C122.228 144.207 121.559 143.985 121.103 143.541C120.647 143.097 120.419 142.464 120.419 141.642V141.399C120.419 140.529 120.686 139.887 121.22 139.473C121.76 139.053 122.615 138.768 123.785 138.618L126.161 138.303L126.323 139.959L124.217 140.265C123.791 140.319 123.491 140.418 123.317 140.562C123.143 140.706 123.056 140.919 123.056 141.201V141.264C123.056 141.534 123.143 141.75 123.317 141.912C123.491 142.068 123.77 142.146 124.154 142.146C124.49 142.146 124.778 142.095 125.018 141.993C125.264 141.891 125.465 141.759 125.621 141.597C125.777 141.429 125.894 141.243 125.972 141.039L126.359 142.155H125.909C125.813 142.539 125.663 142.887 125.459 143.199C125.261 143.511 124.973 143.757 124.595 143.937C124.217 144.117 123.722 144.207 123.11 144.207ZM133.206 144.207C132.174 144.207 131.391 143.868 130.857 143.19C130.329 142.512 130.065 141.504 130.065 140.166V139.077C130.065 137.715 130.332 136.686 130.866 135.99C131.4 135.294 132.207 134.946 133.287 134.946C133.815 134.946 134.256 135.033 134.61 135.207C134.964 135.381 135.246 135.627 135.456 135.945C135.672 136.263 135.822 136.638 135.906 137.07H136.653L136.005 138.852C135.993 138.486 135.921 138.177 135.789 137.925C135.657 137.673 135.471 137.481 135.231 137.349C134.997 137.211 134.712 137.142 134.376 137.142C133.872 137.142 133.488 137.289 133.224 137.583C132.96 137.877 132.828 138.318 132.828 138.906V140.175C132.828 140.757 132.96 141.198 133.224 141.498C133.494 141.792 133.89 141.939 134.412 141.939C134.688 141.939 134.934 141.888 135.15 141.786C135.372 141.684 135.558 141.543 135.708 141.363C135.864 141.183 135.978 140.979 136.05 140.751L136.725 142.083H135.951C135.861 142.479 135.711 142.839 135.501 143.163C135.291 143.487 135 143.742 134.628 143.928C134.256 144.114 133.782 144.207 133.206 144.207ZM135.969 144L136.05 141.759L136.005 141.291V137.709V137.322L135.969 134.757V132.111H138.705V144H135.969ZM71.7143 171V160.038H74.5313V171H71.7143ZM68.5373 161.847V159.498H77.6993V161.847H68.5373ZM83.1422 171L83.2232 168.786L83.1602 168.651V165.888L83.1422 165.528C83.1422 165.036 82.9982 164.673 82.7102 164.439C82.4222 164.205 81.9392 164.088 81.2612 164.088C80.6672 164.088 80.1032 164.163 79.5692 164.313C79.0352 164.463 78.5312 164.634 78.0572 164.826L78.2912 162.693C78.5732 162.561 78.8882 162.438 79.2362 162.324C79.5902 162.204 79.9802 162.108 80.4062 162.036C80.8322 161.964 81.2882 161.928 81.7742 161.928C82.5482 161.928 83.1962 162.018 83.7182 162.198C84.2402 162.378 84.6572 162.633 84.9692 162.963C85.2812 163.293 85.5062 163.689 85.6442 164.151C85.7822 164.607 85.8512 165.111 85.8512 165.663V171H83.1422ZM80.3252 171.207C79.4432 171.207 78.7742 170.985 78.3182 170.541C77.8622 170.097 77.6342 169.464 77.6342 168.642V168.399C77.6342 167.529 77.9012 166.887 78.4352 166.473C78.9752 166.053 79.8302 165.768 81.0002 165.618L83.3762 165.303L83.5382 166.959L81.4322 167.265C81.0062 167.319 80.7062 167.418 80.5322 167.562C80.3582 167.706 80.2712 167.919 80.2712 168.201V168.264C80.2712 168.534 80.3582 168.75 80.5322 168.912C80.7062 169.068 80.9852 169.146 81.3692 169.146C81.7052 169.146 81.9932 169.095 82.2332 168.993C82.4792 168.891 82.6802 168.759 82.8362 168.597C82.9922 168.429 83.1092 168.243 83.1872 168.039L83.5742 169.155H83.1242C83.0282 169.539 82.8782 169.887 82.6742 170.199C82.4762 170.511 82.1882 170.757 81.8102 170.937C81.4322 171.117 80.9372 171.207 80.3252 171.207ZM93.2554 171V165.798C93.2554 165.474 93.2134 165.195 93.1294 164.961C93.0454 164.721 92.9044 164.538 92.7064 164.412C92.5084 164.286 92.2384 164.223 91.8964 164.223C91.6144 164.223 91.3654 164.274 91.1494 164.376C90.9334 164.472 90.7504 164.607 90.6004 164.781C90.4564 164.949 90.3484 165.141 90.2764 165.357L89.8534 164.07H90.3214C90.4174 163.668 90.5734 163.308 90.7894 162.99C91.0114 162.672 91.3144 162.42 91.6984 162.234C92.0824 162.042 92.5684 161.946 93.1564 161.946C93.8164 161.946 94.3564 162.075 94.7764 162.333C95.1964 162.585 95.5054 162.963 95.7034 163.467C95.9074 163.971 96.0094 164.601 96.0094 165.357V171H93.2554ZM87.5674 171V162.153H90.3034L90.2134 164.367L90.3214 164.628V171H87.5674ZM100.616 171.207C99.5837 171.207 98.8007 170.868 98.2667 170.19C97.7387 169.512 97.4747 168.504 97.4747 167.166V166.077C97.4747 164.715 97.7417 163.686 98.2757 162.99C98.8097 162.294 99.6167 161.946 100.697 161.946C101.225 161.946 101.666 162.033 102.02 162.207C102.374 162.381 102.656 162.627 102.866 162.945C103.082 163.263 103.232 163.638 103.316 164.07H104.063L103.415 165.852C103.403 165.486 103.331 165.177 103.199 164.925C103.067 164.673 102.881 164.481 102.641 164.349C102.407 164.211 102.122 164.142 101.786 164.142C101.282 164.142 100.898 164.289 100.634 164.583C100.37 164.877 100.238 165.318 100.238 165.906V167.175C100.238 167.757 100.37 168.198 100.634 168.498C100.904 168.792 101.3 168.939 101.822 168.939C102.098 168.939 102.344 168.888 102.56 168.786C102.782 168.684 102.968 168.543 103.118 168.363C103.274 168.183 103.388 167.979 103.46 167.751L104.135 169.083H103.361C103.271 169.479 103.121 169.839 102.911 170.163C102.701 170.487 102.41 170.742 102.038 170.928C101.666 171.114 101.192 171.207 100.616 171.207ZM103.379 171L103.46 168.759L103.415 168.291V164.709V164.322L103.379 161.757V159.111H106.115V171H103.379ZM112.35 171.225C110.742 171.225 109.554 170.868 108.786 170.154C108.018 169.434 107.634 168.387 107.634 167.013V166.095C107.634 164.739 107.994 163.701 108.714 162.981C109.434 162.255 110.481 161.892 111.855 161.892C112.779 161.892 113.547 162.051 114.159 162.369C114.777 162.681 115.239 163.128 115.545 163.71C115.857 164.292 116.013 164.991 116.013 165.807V166.104C116.013 166.332 116.001 166.566 115.977 166.806C115.959 167.04 115.932 167.259 115.896 167.463H113.412C113.436 167.115 113.451 166.788 113.457 166.482C113.463 166.17 113.466 165.888 113.466 165.636C113.466 165.27 113.409 164.964 113.295 164.718C113.181 164.466 113.004 164.274 112.764 164.142C112.53 164.01 112.227 163.944 111.855 163.944C111.303 163.944 110.898 164.094 110.64 164.394C110.388 164.688 110.262 165.108 110.262 165.654V166.464L110.28 166.761V167.391C110.28 167.619 110.316 167.835 110.388 168.039C110.466 168.243 110.598 168.423 110.784 168.579C110.976 168.729 111.237 168.849 111.567 168.939C111.903 169.023 112.329 169.065 112.845 169.065C113.391 169.065 113.916 169.014 114.42 168.912C114.924 168.804 115.407 168.66 115.869 168.48L115.644 170.55C115.236 170.76 114.753 170.925 114.195 171.045C113.637 171.165 113.022 171.225 112.35 171.225ZM109.092 167.463V165.762H115.338V167.463H109.092ZM128.339 171V165.726C128.339 165.414 128.3 165.147 128.222 164.925C128.15 164.697 128.024 164.523 127.844 164.403C127.67 164.283 127.427 164.223 127.115 164.223C126.851 164.223 126.62 164.274 126.422 164.376C126.224 164.472 126.059 164.607 125.927 164.781C125.795 164.949 125.696 165.141 125.63 165.357L125.369 164.07H125.612C125.708 163.674 125.861 163.317 126.071 162.999C126.281 162.675 126.572 162.42 126.944 162.234C127.316 162.042 127.793 161.946 128.375 161.946C129.005 161.946 129.518 162.072 129.914 162.324C130.316 162.57 130.613 162.942 130.805 163.44C130.997 163.932 131.093 164.547 131.093 165.285V171H128.339ZM117.503 171V162.153H120.239L120.149 164.538L120.257 164.628V171H117.503ZM122.921 171V165.726C122.921 165.414 122.882 165.147 122.804 164.925C122.732 164.697 122.606 164.523 122.426 164.403C122.246 164.283 122.003 164.223 121.697 164.223C121.427 164.223 121.193 164.274 120.995 164.376C120.797 164.472 120.632 164.607 120.5 164.781C120.374 164.949 120.278 165.141 120.212 165.357L119.789 164.07H120.257C120.347 163.668 120.494 163.308 120.698 162.99C120.908 162.672 121.196 162.42 121.562 162.234C121.928 162.042 122.39 161.946 122.948 161.946C123.77 161.946 124.388 162.159 124.802 162.585C125.222 163.005 125.486 163.617 125.594 164.421C125.612 164.541 125.63 164.688 125.648 164.862C125.666 165.036 125.675 165.192 125.675 165.33V171H122.921Z" fill="#A77DFF"/>
</g>
<defs>
<filter id="filter0_f_9063_4341" x="-3.00195" y="-332.334" width="393.928" height="590.721" filterUnits="userSpaceOnUse" color-interpolation-filters="sRGB">
<feFlood flood-opacity="0" result="BackgroundImageFix"/>
<feBlend mode="normal" in="SourceGraphic" in2="BackgroundImageFix" result="shape"/>
<feGaussianBlur stdDeviation="75" result="effect1_foregroundBlur_9063_4341"/>
</filter>
<filter id="filter1_f_9063_4341" x="-84.002" y="-352" width="393.927" height="589.557" filterUnits="userSpaceOnUse" color-interpolation-filters="sRGB">
<feFlood flood-opacity="0" result="BackgroundImageFix"/>
<feBlend mode="normal" in="SourceGraphic" in2="BackgroundImageFix" result="shape"/>
<feGaussianBlur stdDeviation="75" result="effect1_foregroundBlur_9063_4341"/>
</filter>
<filter id="filter2_f_9063_4341" x="-206.002" y="-345" width="393.927" height="589.557" filterUnits="userSpaceOnUse" color-interpolation-filters="sRGB">
<feFlood flood-opacity="0" result="BackgroundImageFix"/>
<feBlend mode="normal" in="SourceGraphic" in2="BackgroundImageFix" result="shape"/>
<feGaussianBlur stdDeviation="75" result="effect1_foregroundBlur_9063_4341"/>
</filter>
</defs>
</svg>
