<svg width="171" height="89" viewBox="0 0 171 89" fill="none" xmlns="http://www.w3.org/2000/svg">
<rect width="171" height="89" rx="16" fill="black"/>
<mask id="mask0_9062_4278" style="mask-type:alpha" maskUnits="userSpaceOnUse" x="0" y="0" width="171" height="89">
<rect width="171" height="89" rx="16" fill="black"/>
</mask>
<g mask="url(#mask0_9062_4278)">
<g opacity="0.5">
<g filter="url(#filter0_f_9062_4278)">
<rect x="147.22" y="108.387" width="290.65" height="93.706" transform="rotate(-90.0437 147.22 108.387)" fill="#CAFF4D"/>
</g>
<g filter="url(#filter1_f_9062_4278)">
<rect x="66.2188" y="87.5566" width="289.485" height="93.706" transform="rotate(-90.0437 66.2188 87.5566)" fill="#A77DFF"/>
</g>
<g filter="url(#filter2_f_9062_4278)">
<rect x="-55.7812" y="94.5566" width="289.485" height="93.706" transform="rotate(-90.0437 -55.7812 94.5566)" fill="#00FFC8"/>
</g>
</g>
<path d="M95.345 41V39.166H97.298C97.858 39.166 98.278 39.0143 98.558 38.711C98.838 38.4077 98.978 37.9737 98.978 37.409V35.617C98.978 35.0523 98.838 34.6207 98.558 34.322C98.278 34.0187 97.858 33.867 97.298 33.867H95.338V32.054H97.375C98.649 32.054 99.601 32.362 100.231 32.978C100.866 33.5893 101.183 34.469 101.183 35.617V37.416C101.183 38.5687 100.868 39.4553 100.238 40.076C99.608 40.692 98.6537 41 97.375 41H95.345ZM93.812 41V32.054H95.968V41H93.812ZM105.538 41.196C104.427 41.196 103.587 40.9207 103.018 40.37C102.453 39.8147 102.171 39.0353 102.171 38.032V37.129C102.171 36.1117 102.456 35.323 103.025 34.763C103.594 34.1983 104.432 33.916 105.538 33.916C106.644 33.916 107.479 34.1983 108.044 34.763C108.613 35.323 108.898 36.1117 108.898 37.129V38.032C108.898 39.0353 108.616 39.8147 108.051 40.37C107.486 40.9207 106.649 41.196 105.538 41.196ZM105.538 39.509C105.935 39.509 106.236 39.39 106.441 39.152C106.651 38.9093 106.756 38.5663 106.756 38.123V37.038C106.756 36.5713 106.651 36.2167 106.441 35.974C106.236 35.7313 105.935 35.61 105.538 35.61C105.141 35.61 104.838 35.7313 104.628 35.974C104.423 36.2167 104.32 36.5713 104.32 37.038V38.123C104.32 38.5663 104.423 38.9093 104.628 39.152C104.838 39.39 105.141 39.509 105.538 39.509ZM110.79 41L109.411 34.119H111.581L112.435 39.488H112.561L113.401 34.287H116.019L116.873 39.488H116.992L117.853 34.119H120.002L118.623 41H115.578L114.885 36.618L114.766 35.848H114.668L114.542 36.618L113.849 41H110.79ZM125.318 41V36.954C125.318 36.702 125.285 36.485 125.22 36.303C125.154 36.1163 125.045 35.974 124.891 35.876C124.737 35.778 124.527 35.729 124.261 35.729C124.041 35.729 123.848 35.7687 123.68 35.848C123.512 35.9227 123.369 36.0277 123.253 36.163C123.141 36.2937 123.057 36.443 123.001 36.611L122.672 35.61H123.036C123.11 35.2973 123.232 35.0173 123.4 34.77C123.572 34.5227 123.808 34.3267 124.107 34.182C124.405 34.0327 124.783 33.958 125.241 33.958C125.754 33.958 126.174 34.0583 126.501 34.259C126.827 34.455 127.068 34.749 127.222 35.141C127.38 35.533 127.46 36.023 127.46 36.611V41H125.318ZM120.894 41V34.119H123.022L122.952 35.841L123.036 36.044V41H120.894ZM128.83 41V31.753H130.972V41H128.83ZM135.52 41.196C134.41 41.196 133.57 40.9207 133 40.37C132.436 39.8147 132.153 39.0353 132.153 38.032V37.129C132.153 36.1117 132.438 35.323 133.007 34.763C133.577 34.1983 134.414 33.916 135.52 33.916C136.626 33.916 137.462 34.1983 138.026 34.763C138.596 35.323 138.88 36.1117 138.88 37.129V38.032C138.88 39.0353 138.598 39.8147 138.033 40.37C137.469 40.9207 136.631 41.196 135.52 41.196ZM135.52 39.509C135.917 39.509 136.218 39.39 136.423 39.152C136.633 38.9093 136.738 38.5663 136.738 38.123V37.038C136.738 36.5713 136.633 36.2167 136.423 35.974C136.218 35.7313 135.917 35.61 135.52 35.61C135.124 35.61 134.82 35.7313 134.61 35.974C134.405 36.2167 134.302 36.5713 134.302 37.038V38.123C134.302 38.5663 134.405 38.9093 134.61 39.152C134.82 39.39 135.124 39.509 135.52 39.509ZM143.989 41L144.052 39.278L144.003 39.173V37.024L143.989 36.744C143.989 36.3613 143.877 36.079 143.653 35.897C143.429 35.715 143.053 35.624 142.526 35.624C142.064 35.624 141.625 35.6823 141.21 35.799C140.795 35.9157 140.403 36.0487 140.034 36.198L140.216 34.539C140.435 34.4363 140.68 34.3407 140.951 34.252C141.226 34.1587 141.53 34.084 141.861 34.028C142.192 33.972 142.547 33.944 142.925 33.944C143.527 33.944 144.031 34.014 144.437 34.154C144.843 34.294 145.167 34.4923 145.41 34.749C145.653 35.0057 145.828 35.3137 145.935 35.673C146.042 36.0277 146.096 36.4197 146.096 36.849V41H143.989ZM141.798 41.161C141.112 41.161 140.592 40.9883 140.237 40.643C139.882 40.2977 139.705 39.8053 139.705 39.166V38.977C139.705 38.3003 139.913 37.801 140.328 37.479C140.748 37.1523 141.413 36.9307 142.323 36.814L144.171 36.569L144.297 37.857L142.659 38.095C142.328 38.137 142.094 38.214 141.959 38.326C141.824 38.438 141.756 38.6037 141.756 38.823V38.872C141.756 39.082 141.824 39.25 141.959 39.376C142.094 39.4973 142.311 39.558 142.61 39.558C142.871 39.558 143.095 39.5183 143.282 39.439C143.473 39.3597 143.63 39.257 143.751 39.131C143.872 39.0003 143.963 38.8557 144.024 38.697L144.325 39.565H143.975C143.9 39.8637 143.784 40.1343 143.625 40.377C143.471 40.6197 143.247 40.811 142.953 40.951C142.659 41.091 142.274 41.161 141.798 41.161ZM149.65 41.161C148.847 41.161 148.238 40.8973 147.823 40.37C147.412 39.8427 147.207 39.0587 147.207 38.018V37.171C147.207 36.1117 147.414 35.3113 147.83 34.77C148.245 34.2287 148.873 33.958 149.713 33.958C150.123 33.958 150.466 34.0257 150.742 34.161C151.017 34.2963 151.236 34.4877 151.4 34.735C151.568 34.9823 151.684 35.274 151.75 35.61H152.331L151.827 36.996C151.817 36.7113 151.761 36.471 151.659 36.275C151.556 36.079 151.411 35.9297 151.225 35.827C151.043 35.7197 150.821 35.666 150.56 35.666C150.168 35.666 149.869 35.7803 149.664 36.009C149.458 36.2377 149.356 36.5807 149.356 37.038V38.025C149.356 38.4777 149.458 38.8207 149.664 39.054C149.874 39.2827 150.182 39.397 150.588 39.397C150.802 39.397 150.994 39.3573 151.162 39.278C151.334 39.1987 151.479 39.089 151.596 38.949C151.717 38.809 151.806 38.6503 151.862 38.473L152.387 39.509H151.785C151.715 39.817 151.598 40.097 151.435 40.349C151.271 40.601 151.045 40.7993 150.756 40.944C150.466 41.0887 150.098 41.161 149.65 41.161ZM151.799 41L151.862 39.257L151.827 38.893V36.107V35.806L151.799 33.811V31.753H153.927V41H151.799ZM95.835 58V49.474H98.026V58H95.835ZM93.364 50.881V49.054H100.49V50.881H93.364ZM104.723 58L104.786 56.278L104.737 56.173V54.024L104.723 53.744C104.723 53.3613 104.611 53.079 104.387 52.897C104.163 52.715 103.788 52.624 103.26 52.624C102.798 52.624 102.36 52.6823 101.944 52.799C101.529 52.9157 101.137 53.0487 100.768 53.198L100.95 51.539C101.17 51.4363 101.415 51.3407 101.685 51.252C101.961 51.1587 102.264 51.084 102.595 51.028C102.927 50.972 103.281 50.944 103.659 50.944C104.261 50.944 104.765 51.014 105.171 51.154C105.577 51.294 105.902 51.4923 106.144 51.749C106.387 52.0057 106.562 52.3137 106.669 52.673C106.777 53.0277 106.83 53.4197 106.83 53.849V58H104.723ZM102.532 58.161C101.846 58.161 101.326 57.9883 100.971 57.643C100.617 57.2977 100.439 56.8053 100.439 56.166V55.977C100.439 55.3003 100.647 54.801 101.062 54.479C101.482 54.1523 102.147 53.9307 103.057 53.814L104.905 53.569L105.031 54.857L103.393 55.095C103.062 55.137 102.829 55.214 102.693 55.326C102.558 55.438 102.49 55.6037 102.49 55.823V55.872C102.49 56.082 102.558 56.25 102.693 56.376C102.829 56.4973 103.046 56.558 103.344 56.558C103.606 56.558 103.83 56.5183 104.016 56.439C104.208 56.3597 104.364 56.257 104.485 56.131C104.607 56.0003 104.698 55.8557 104.758 55.697L105.059 56.565H104.709C104.635 56.8637 104.518 57.1343 104.359 57.377C104.205 57.6197 103.981 57.811 103.687 57.951C103.393 58.091 103.008 58.161 102.532 58.161ZM112.589 58V53.954C112.589 53.702 112.557 53.485 112.491 53.303C112.426 53.1163 112.316 52.974 112.162 52.876C112.008 52.778 111.798 52.729 111.532 52.729C111.313 52.729 111.119 52.7687 110.951 52.848C110.783 52.9227 110.641 53.0277 110.524 53.163C110.412 53.2937 110.328 53.443 110.272 53.611L109.943 52.61H110.307C110.382 52.2973 110.503 52.0173 110.671 51.77C110.844 51.5227 111.08 51.3267 111.378 51.182C111.677 51.0327 112.055 50.958 112.512 50.958C113.026 50.958 113.446 51.0583 113.772 51.259C114.099 51.455 114.339 51.749 114.493 52.141C114.652 52.533 114.731 53.023 114.731 53.611V58H112.589ZM108.165 58V51.119H110.293L110.223 52.841L110.307 53.044V58H108.165ZM118.314 58.161C117.511 58.161 116.902 57.8973 116.487 57.37C116.076 56.8427 115.871 56.0587 115.871 55.018V54.171C115.871 53.1117 116.079 52.3113 116.494 51.77C116.909 51.2287 117.537 50.958 118.377 50.958C118.788 50.958 119.131 51.0257 119.406 51.161C119.681 51.2963 119.901 51.4877 120.064 51.735C120.232 51.9823 120.349 52.274 120.414 52.61H120.995L120.491 53.996C120.482 53.7113 120.426 53.471 120.323 53.275C120.22 53.079 120.076 52.9297 119.889 52.827C119.707 52.7197 119.485 52.666 119.224 52.666C118.832 52.666 118.533 52.7803 118.328 53.009C118.123 53.2377 118.02 53.5807 118.02 54.038V55.025C118.02 55.4777 118.123 55.8207 118.328 56.054C118.538 56.2827 118.846 56.397 119.252 56.397C119.467 56.397 119.658 56.3573 119.826 56.278C119.999 56.1987 120.143 56.089 120.26 55.949C120.381 55.809 120.47 55.6503 120.526 55.473L121.051 56.509H120.449C120.379 56.817 120.262 57.097 120.099 57.349C119.936 57.601 119.709 57.7993 119.42 57.944C119.131 58.0887 118.762 58.161 118.314 58.161ZM120.463 58L120.526 56.257L120.491 55.893V53.107V52.806L120.463 50.811V48.753H122.591V58H120.463ZM127.441 58.175C126.19 58.175 125.266 57.8973 124.669 57.342C124.071 56.782 123.773 55.9677 123.773 54.899V54.185C123.773 53.1303 124.053 52.323 124.613 51.763C125.173 51.1983 125.987 50.916 127.056 50.916C127.774 50.916 128.372 51.0397 128.848 51.287C129.328 51.5297 129.688 51.8773 129.926 52.33C130.168 52.7827 130.29 53.3263 130.29 53.961V54.192C130.29 54.3693 130.28 54.5513 130.262 54.738C130.248 54.92 130.227 55.0903 130.199 55.249H128.267C128.285 54.9783 128.297 54.724 128.302 54.486C128.306 54.2433 128.309 54.024 128.309 53.828C128.309 53.5433 128.264 53.3053 128.176 53.114C128.087 52.918 127.949 52.7687 127.763 52.666C127.581 52.5633 127.345 52.512 127.056 52.512C126.626 52.512 126.311 52.6287 126.111 52.862C125.915 53.0907 125.817 53.4173 125.817 53.842V54.472L125.831 54.703V55.193C125.831 55.3703 125.859 55.5383 125.915 55.697C125.975 55.8557 126.078 55.9957 126.223 56.117C126.372 56.2337 126.575 56.327 126.832 56.397C127.093 56.4623 127.424 56.495 127.826 56.495C128.25 56.495 128.659 56.4553 129.051 56.376C129.443 56.292 129.818 56.18 130.178 56.04L130.003 57.65C129.685 57.8133 129.31 57.9417 128.876 58.035C128.442 58.1283 127.963 58.175 127.441 58.175ZM124.907 55.249V53.926H129.765V55.249H124.907ZM139.876 58V53.898C139.876 53.6553 139.846 53.4477 139.785 53.275C139.729 53.0977 139.631 52.9623 139.491 52.869C139.356 52.7757 139.167 52.729 138.924 52.729C138.719 52.729 138.539 52.7687 138.385 52.848C138.231 52.9227 138.103 53.0277 138 53.163C137.898 53.2937 137.821 53.443 137.769 53.611L137.566 52.61H137.755C137.83 52.302 137.949 52.0243 138.112 51.777C138.276 51.525 138.502 51.3267 138.791 51.182C139.081 51.0327 139.452 50.958 139.904 50.958C140.394 50.958 140.793 51.056 141.101 51.252C141.414 51.4433 141.645 51.7327 141.794 52.12C141.944 52.5027 142.018 52.981 142.018 53.555V58H139.876ZM131.448 58V51.119H133.576L133.506 52.974L133.59 53.044V58H131.448ZM135.662 58V53.898C135.662 53.6553 135.632 53.4477 135.571 53.275C135.515 53.0977 135.417 52.9623 135.277 52.869C135.137 52.7757 134.948 52.729 134.71 52.729C134.5 52.729 134.318 52.7687 134.164 52.848C134.01 52.9227 133.882 53.0277 133.779 53.163C133.681 53.2937 133.607 53.443 133.555 53.611L133.226 52.61H133.59C133.66 52.2973 133.775 52.0173 133.933 51.77C134.097 51.5227 134.321 51.3267 134.605 51.182C134.89 51.0327 135.249 50.958 135.683 50.958C136.323 50.958 136.803 51.1237 137.125 51.455C137.452 51.7817 137.657 52.2577 137.741 52.883C137.755 52.9763 137.769 53.0907 137.783 53.226C137.797 53.3613 137.804 53.4827 137.804 53.59V58H135.662Z" fill="#A77DFF"/>
</g>
<defs>
<filter id="filter0_f_9062_4278" x="-3.00195" y="-332.334" width="393.928" height="590.721" filterUnits="userSpaceOnUse" color-interpolation-filters="sRGB">
<feFlood flood-opacity="0" result="BackgroundImageFix"/>
<feBlend mode="normal" in="SourceGraphic" in2="BackgroundImageFix" result="shape"/>
<feGaussianBlur stdDeviation="75" result="effect1_foregroundBlur_9062_4278"/>
</filter>
<filter id="filter1_f_9062_4278" x="-84.002" y="-352" width="393.927" height="589.557" filterUnits="userSpaceOnUse" color-interpolation-filters="sRGB">
<feFlood flood-opacity="0" result="BackgroundImageFix"/>
<feBlend mode="normal" in="SourceGraphic" in2="BackgroundImageFix" result="shape"/>
<feGaussianBlur stdDeviation="75" result="effect1_foregroundBlur_9062_4278"/>
</filter>
<filter id="filter2_f_9062_4278" x="-206.002" y="-345" width="393.927" height="589.557" filterUnits="userSpaceOnUse" color-interpolation-filters="sRGB">
<feFlood flood-opacity="0" result="BackgroundImageFix"/>
<feBlend mode="normal" in="SourceGraphic" in2="BackgroundImageFix" result="shape"/>
<feGaussianBlur stdDeviation="75" result="effect1_foregroundBlur_9062_4278"/>
</filter>
</defs>
</svg>
