<svg width="32" height="49" viewBox="0 0 32 49" fill="none" xmlns="http://www.w3.org/2000/svg">
<path d="M18.1064 0.500002C20.0167 0.49678 19.1154 4.80352 18.5043 7.49641C19.6536 7.08467 20.7999 6.68403 21.969 6.28391C23.173 5.9004 24.3768 5.45281 25.5099 5.06943C26.3598 4.75012 27.2812 4.49422 28.2734 4.55589C29.9743 4.61646 31.3942 5.88483 31.468 7.47316C31.541 8.6802 30.6924 9.88937 29.3471 10.4637C26.1604 11.7407 22.9731 12.827 19.7862 13.9768C19.078 14.2322 18.4407 14.5515 17.7324 14.7434C17.4491 14.871 17.3079 15.0618 17.2375 15.316C16.5864 17.2739 15.9774 19.2319 15.4427 21.1898C12.2491 30.9172 9.08493 44.3348 16.0588 42.9441C16.3047 42.925 16.5496 42.8963 16.7921 42.8563C17.5449 42.8389 19.2399 42.0547 19.7648 41.7932C19.917 41.9697 19.8378 42.4035 19.8418 42.6241C19.8563 43.5757 19.7646 44.5259 19.6447 45.471L19.6418 45.4948C19.5987 45.8414 19.5458 46.257 19.3514 46.5832L19.3284 46.5948C15.1854 48.5883 11.8409 48.2232 9.68895 47.464C8.19845 46.9381 7.07609 45.6803 6.74309 44.125C6.01316 40.7145 6.54154 35.7156 7.5476 30.7294C8.14797 27.7541 8.91883 24.7845 9.69204 22.1612C10.1476 20.7096 10.6643 19.2575 11.2178 17.8056C11.2882 17.615 11.2883 17.4244 11.3587 17.2337C11.146 17.1707 10.9333 17.2983 10.7916 17.362C10.0129 17.7448 9.16294 18.1275 8.31339 18.5739C7.39295 19.0205 6.54321 19.5302 5.62282 19.9767C5.33963 20.1044 5.12719 20.2954 4.98582 20.4863C3.99596 21.8224 -0.4688 21.3861 0.730252 18.461C1.22468 17.5706 2.07385 17.0603 2.92317 16.4869C3.34776 16.232 3.63116 15.9771 3.70107 15.4055C3.77028 14.5158 4.33579 13.8156 5.185 13.2421C6.95459 12.0951 8.79597 11.2651 10.7789 10.4988C11.5733 10.1706 12.3678 9.85627 13.1622 9.54283C14.2287 2.85551 15.7993 0.504393 18.1064 0.500002Z" fill="#925FFF"/>
<path d="M5.30089 38.7249C5.37553 30.2887 8.50906 21.2121 10.0665 17.7284L12.4955 15.4688L8.57123 44.7507H16.5132L20.3441 41.6437L19.69 45.8806C17.8961 47.6883 13.461 47.952 11.4678 47.8578C5.78689 47.8578 4.98948 41.7692 5.30089 38.7249Z" fill="#925FFF"/>
<path d="M20.0127 40.0309C15.1369 41.9996 13.0537 39.8725 13.0537 37.0736L9.33184 36.7656L8.93066 44.1324L9.48284 47.5461C12.3818 48.7808 16.9058 48.1627 19.3446 47.5512C19.7511 47.4493 20.0401 47.0945 20.0821 46.6744L20.7274 40.2196C20.7525 39.9689 20.4933 39.7888 20.2696 39.9015L20.0127 40.0309Z" fill="#925FFF"/>
<path d="M17.5742 0.544071C13.8902 1.26899 12.3285 7.00412 11.8691 10.1516L17.1701 8.79409L18.4013 2.14096C18.6769 0.752393 17.9647 0.497798 17.5742 0.544071Z" fill="#925FFF"/>
<path d="M19.6597 41.5366C18.9618 42.1335 17.0983 42.7425 15.6855 43.033L16.0831 47.7511C16.7346 47.6914 18.0077 47.2872 18.912 46.9603C19.3834 46.7898 19.7061 46.3594 19.7657 45.8582L20.0349 43.593C20.3277 41.3198 19.9068 41.2749 19.6597 41.5366Z" fill="#925FFF"/>
</svg>
